HIERARCHY
ROOT hip
{
	OFFSET 0.000000 0.000000 0.000000 
	CHANNELS 6 Xposition Yposition Zposition Xrotation Zrotation Yrotation
	JOINT abdomen
	{
		OFFSET 0.000000 3.402643 0.000000 
		CHANNELS 3 Xrotation Zrotation Yrotation
		JOINT chest
		{
			OFFSET 0.000000 8.438565 -0.680529 
			CHANNELS 3 Xrotation Zrotation Yrotation
			JOINT neck
			{
				OFFSET 0.000000 10.207942 -0.272212 
				CHANNELS 3 Xrotation Zrotation Yrotation
				JOINT head
				{
					OFFSET 0.000000 3.130431 0.000000 
					CHANNELS 3 Xrotation Zrotation Yrotation
					End Site
					{
						OFFSET 0.000000 3.130435 0.000000 
					}
				}
			}
			JOINT lCollar
			{
				OFFSET 3.470700 6.669187 -0.816635 
				CHANNELS 3 Yrotation Zrotation Xrotation
				JOINT lShldr
				{
					OFFSET 3.198488 0.000000 0.000000 
					CHANNELS 3 Zrotation Yrotation Xrotation
					JOINT lForeArm
					{
						OFFSET 10.139888 0.000000 0.000000 
						CHANNELS 3 Yrotation Zrotation Xrotation
						JOINT lHand
						{
							OFFSET 8.370511 0.000000 0.000000 
							CHANNELS 3 Zrotation Yrotation Xrotation
							End Site
							{
								OFFSET 4.083176 0.000000 0.000000 
							}
						}
					}
				}
			}
			JOINT rCollar
			{
				OFFSET -3.470700 6.669187 -0.816635 
				CHANNELS 3 Yrotation Zrotation Xrotation
				JOINT rShldr
				{
					OFFSET -3.198488 0.000000 0.000000 
					CHANNELS 3 Zrotation Yrotation Xrotation
					JOINT rForeArm
					{
						OFFSET -10.139888 0.000000 0.000000 
						CHANNELS 3 Yrotation Zrotation Xrotation
						JOINT rHand
						{
							OFFSET -8.370511 0.000000 0.000000 
							CHANNELS 3 Zrotation Yrotation Xrotation
							End Site
							{
								OFFSET -4.083176 0.000000 0.000000 
							}
						}
					}
				}
			}
		}
	}
	JOINT lThigh
	{
		OFFSET 5.308129 -1.633274 1.361059 
		CHANNELS 3 Xrotation Zrotation Yrotation
		JOINT lShin
		{
			OFFSET -2.041588 -20.007561 0.000000 
			CHANNELS 3 Xrotation Zrotation Yrotation
			JOINT lFoot
			{
				OFFSET 0.000000 -19.190928 -1.224953 
				CHANNELS 3 Xrotation Yrotation Zrotation
				End Site
				{
					OFFSET 0.000000 -2.449906 4.627600 
				}
			}
		}
	}
	JOINT rThigh
	{
		OFFSET -5.308129 -1.633274 1.361059 
		CHANNELS 3 Xrotation Zrotation Yrotation
		JOINT rShin
		{
			OFFSET 2.041588 -20.007561 0.000000 
			CHANNELS 3 Xrotation Zrotation Yrotation
			JOINT rFoot
			{
				OFFSET 0.000000 -19.190928 -1.224953 
				CHANNELS 3 Xrotation Yrotation Zrotation
				End Site
				{
					OFFSET 0.000000 -2.449906 4.627600 
				}
			}
		}
	}
}
MOTION
Frames: 14
Frame Time: 0.033333
0.889196 17.668934 45.113895 93.256683 -1.800311 -9.123606 0.000000 0.000000 0.000000 -3.386717 -3.889700 5.659165 8.880651 -1.643493 -0.153229 -31.076086 -8.573987 -9.287390 -19.324739 30.000000 25.000000 -103.769775 -0.654567 3.169098 -132.494949 35.933403 77.561287 43.200954 30.342070 -45.590843 26.463581 -30.000000 25.000000 90.185059 6.930265 86.138878 -110.438927 -37.732849 -137.899979 -26.348129 -48.409050 -62.036846 3.941844 8.560710 20.109621 92.709084 13.232461 -0.304841 20.750662 -10.754308 6.956625 -13.943460 -19.361954 -4.495140 109.177711 -13.505360 5.324749 14.412959 1.186046 6.563367 
0.504263 18.913233 44.870132 95.370064 -3.240409 -9.361050 0.000000 0.000000 0.000000 -2.758261 -3.218930 5.799286 9.335079 -3.597362 -0.299099 -28.579054 -8.823709 -11.410561 -17.662453 30.000000 25.000000 -103.325363 -5.521420 2.823843 -137.094635 40.129311 86.684311 32.057877 29.847609 -50.919178 26.123711 -30.000000 25.000000 93.808533 9.844134 86.563164 -110.127266 -38.541294 -138.021698 -28.083958 -48.652252 -61.876411 -5.156114 12.815086 21.470898 100.194061 13.629541 -0.210012 18.825771 -11.084704 0.056459 -16.010393 -17.757236 -3.855287 104.837479 -11.941822 5.439209 12.778233 2.084805 9.415428 
0.317037 20.736988 44.565632 99.662827 -3.811829 -11.875385 0.000000 0.000000 0.000000 -4.624534 -2.764423 5.916623 8.535626 -3.899475 -0.321184 -27.815645 -9.269123 -12.881711 -16.118431 30.000000 25.000000 -100.557678 -9.890476 1.570968 36.349857 134.936829 -80.247192 20.417118 28.408234 -55.653255 26.819792 -30.000000 25.000000 92.170944 14.540306 84.747849 -108.637711 -41.008507 -139.717484 -27.948112 -48.001114 -62.822613 -11.884327 15.301263 21.935961 101.293877 12.009439 -0.562072 15.424324 -14.043189 1.110954 -21.491159 -17.087286 -3.376765 102.431099 -10.361276 5.658184 13.400217 2.175353 11.304994 
0.309285 22.189714 44.287010 102.583595 -3.436556 -15.379271 0.000000 0.000000 0.000000 -6.014137 -3.001000 5.881992 7.834853 -3.232603 -0.265316 -28.844412 -8.879564 -11.989243 -14.305854 30.000000 25.000000 -96.176453 -12.280209 -0.334466 27.717836 131.135925 -65.687546 11.297303 26.455364 -58.700962 28.375446 -30.000000 25.000000 87.983917 20.455181 81.790840 -106.574020 -40.450115 -139.899826 -22.886673 -46.373184 -64.613739 -13.522395 15.489689 21.847855 98.935593 9.567761 -1.136815 13.979752 -14.590178 3.239219 -26.575609 -17.437006 -3.240887 102.443420 -9.627600 5.810741 14.533251 3.550852 14.052241 
0.353726 23.025295 43.890209 103.445793 -3.041378 -18.874298 0.000000 0.000000 0.000000 -5.732327 -3.323180 5.801589 7.224620 -2.656414 -0.223059 -30.616604 -7.617935 -9.567204 -11.808928 30.000000 25.000000 -91.679855 -12.668398 -2.301038 18.677153 129.740082 -52.181404 5.352366 24.877222 -60.134502 30.035063 -30.000000 25.000000 83.136971 27.065306 78.445885 -105.600899 -35.687439 -137.636673 -14.748229 -45.080940 -65.985695 -11.804111 14.464997 21.624325 96.087051 7.674271 -1.555126 14.268425 -12.300417 3.575433 -30.161480 -17.565556 -3.113068 104.784637 -10.224586 5.812478 16.159750 5.760877 15.561575 
0.317457 23.366795 43.256897 103.355095 -3.301821 -21.705275 0.000000 0.000000 0.000000 -4.147240 -3.233716 5.810149 5.925363 -2.856728 -0.239459 -31.746275 -6.277082 -7.711604 -8.640271 30.000000 25.000000 -88.208572 -12.101666 -3.854697 10.444479 130.621826 -40.772446 1.307040 23.225803 -60.704338 30.905861 -30.000000 25.000000 78.721497 34.103996 75.116638 -106.493362 -28.224213 -132.354538 -5.933249 -44.408138 -67.273842 -9.794876 13.866358 21.547710 94.893959 7.078648 -1.683353 14.204472 -9.298664 2.005028 -32.556282 -16.541973 -2.657652 108.561607 -11.698501 5.700393 198.416000 172.391052 -165.533203 
0.141571 23.307920 42.526962 103.441620 -4.137311 -23.388550 0.000000 0.000000 0.000000 -2.435079 -3.044129 5.832335 3.588411 -2.843539 -0.226335 -32.088566 -6.551739 -8.479396 -6.226052 30.000000 25.000000 -85.607674 -11.794736 -5.022190 0.617258 133.253601 -28.690117 -3.526279 18.895773 -61.037289 30.152468 -30.000000 25.000000 73.493187 40.241680 71.516029 -107.992989 -21.605593 -125.752609 0.400044 -43.597637 -68.730179 -8.661071 14.212827 21.775991 95.267639 7.489055 -1.574068 12.851933 -7.965098 2.350572 -34.040634 -14.833212 -2.003921 112.208031 -12.907791 5.582210 200.696075 171.769989 -166.691833 
-0.094283 22.653099 42.020058 103.351982 -5.075085 -23.729832 0.000000 0.000000 0.000000 -1.809067 -2.967273 5.835741 1.407447 -2.342510 -0.182947 -32.552025 -8.517667 -11.295784 -5.299646 30.000000 25.000000 -83.110428 -11.748055 -6.138854 -8.558878 135.850464 -21.272533 -6.845201 13.872103 -60.729343 29.084148 -30.000000 25.000000 67.462738 43.899899 67.985008 -111.463577 -13.980901 -111.945648 12.851015 -34.562031 -74.997185 -6.171263 13.898705 21.839432 93.919250 8.026270 -1.470303 12.465076 -8.396001 3.038257 -33.912926 -13.426689 -1.576864 114.007744 -13.719022 5.487650 202.547989 171.602402 -167.941299 
-0.291627 21.579765 41.632118 102.288261 -5.600207 -23.006321 0.000000 0.000000 0.000000 -2.141213 -2.791022 5.875672 0.557361 -2.812290 -0.220622 -32.938412 -9.764916 -14.072426 -6.014621 30.000000 25.000000 -81.470520 -10.336847 -6.915958 -12.000747 135.689850 -22.794500 -7.113353 11.589149 -60.577862 28.716932 -30.000000 25.000000 62.292458 45.848125 65.137421 -114.979408 -7.559373 -100.254120 21.012680 -24.774618 -78.548584 -2.119854 12.145349 21.351618 90.976746 8.555583 -1.344700 192.490555 -170.485626 -178.385956 -32.903614 -12.800553 -1.403818 114.913330 -14.813087 5.285236 203.817596 171.720093 -170.321320 
-0.464439 20.389290 41.260456 99.700592 -5.916349 -21.157444 0.000000 0.000000 0.000000 -2.062713 -2.625253 5.914733 1.214059 -4.065902 -0.307937 -32.874943 -9.938959 -15.924604 -7.613663 30.000000 25.000000 -80.427391 -9.170727 -7.427021 -10.063855 133.542328 -29.093330 -6.158174 11.023397 -60.713436 28.697836 -30.000000 25.000000 59.166000 45.952938 63.699539 -116.908875 -3.711201 -95.409912 25.588066 -20.682840 -79.643761 3.173696 9.589655 20.488073 87.725830 9.805861 -1.047389 192.398285 -168.096741 -178.859528 -30.746073 -13.376632 -1.706962 115.325668 -15.809786 5.096843 203.851028 172.476868 -171.530701 
-0.634063 19.429121 40.911686 96.102859 -6.103536 -18.851133 0.000000 0.000000 0.000000 -0.987444 -2.724205 5.876961 3.127731 -5.117385 -0.394800 -32.623211 -9.256480 -15.962369 -9.300845 30.000000 25.000000 -79.744003 -9.273952 -7.723373 -5.158755 131.079254 -36.086304 -5.129133 10.540914 -60.845592 28.484774 -30.000000 25.000000 58.206188 44.712421 63.648777 -116.903015 -2.639708 -96.341042 28.020527 -21.585907 -79.867371 8.754141 7.282305 19.567593 84.574753 12.023183 -0.540996 192.103012 -163.491211 -174.813309 -27.268497 -15.005979 -2.411458 114.734764 -16.377804 4.945802 21.655706 5.995457 10.636226 
-0.799313 18.955959 40.690205 92.648270 -6.198264 -16.931381 0.000000 0.000000 0.000000 0.890028 -3.163682 5.741428 5.342709 -5.005595 -0.392128 -32.322098 -8.277135 -14.165770 -10.594002 30.000000 25.000000 -79.468575 -10.658533 -7.796447 -1.257583 129.480484 -39.725971 -4.809385 9.316234 -60.811108 27.819857 -30.000000 25.000000 58.091400 42.834293 64.158234 -115.926018 -3.724518 -98.595444 28.932848 -22.228354 -79.966759 13.259495 5.995862 18.913324 80.937355 14.717678 0.095206 191.772415 -157.597183 -169.344788 -22.886248 -16.998518 -3.282559 112.438652 -16.434704 4.852542 17.453791 4.047981 15.158672 
-0.923839 19.040268 40.767174 91.579170 -6.360409 -16.504080 0.000000 0.000000 0.000000 1.702193 -3.387180 5.670482 6.684711 -3.799663 -0.303035 -32.204494 -7.459677 -11.808105 -11.120516 30.000000 25.000000 -79.943886 -11.747606 -7.544863 -0.405585 128.793991 -39.190159 -4.642522 8.063677 -60.699726 26.920158 -30.000000 25.000000 56.656345 41.599506 63.890026 -115.862289 -4.972484 -96.829842 29.576345 -17.495567 -80.501083 14.326075 6.151321 18.906067 76.361404 16.186193 0.531649 190.567581 -155.866165 -171.118744 -20.124416 -17.341372 -3.539279 108.065147 -16.454744 4.668035 15.016541 2.803184 14.826317 
-0.964617 19.462708 41.074463 94.116531 -6.204435 -17.508846 0.000000 0.000000 0.000000 -0.009780 -3.076172 5.781775 6.601502 -3.097952 -0.253995 -32.230671 -6.590094 -10.381187 -10.708060 30.000000 25.000000 -80.618896 -11.800463 -7.249716 -2.228276 128.181808 -36.622604 -3.991683 6.984593 -60.593655 27.810543 -30.000000 25.000000 54.842438 41.418823 63.136280 -116.905357 -3.536888 -93.272400 30.296724 -12.410442 -80.807869 10.337280 7.351972 19.546244 73.522324 16.635099 0.697832 -169.746521 -161.865814 -179.764191 -22.673136 -14.929921 -2.609773 103.758774 -17.275085 4.293509 18.528675 3.975781 6.038473 
